<?xml version="1.0" encoding="utf-8"?>
<!-- Generator: Adobe Illustrator 16.0.0, SVG Export Plug-In . SVG Version: 6.00 Build 0)  -->
<!DOCTYPE svg PUBLIC "-//W3C//DTD SVG 1.1//EN" "http://www.w3.org/Graphics/SVG/1.1/DTD/svg11.dtd">
<!--suppress XmlHighlighting -->
<svg version="1.1" id="Ebene_1" xmlns="http://www.w3.org/2000/svg" xmlns:xlink="http://www.w3.org/1999/xlink" x="0px" y="0px"
	 width="473.333px" height="226.666px" viewBox="0 0 473.333 226.666" enable-background="new 0 0 473.333 226.666"
	 xml:space="preserve">
<rect id="Background" display="none" fill="#3AAA35" width="473.333" height="226.666"/>
<g display="none">
	<path display="inline" d="M259.865,68.718H97.003c-6.627,0-12,5.373-12,12v62.131c0,6.628,5.373,12,12,12h162.862
		c6.627,0,12-5.372,12-12V80.718C271.865,74.091,266.492,68.718,259.865,68.718z M140.112,130.562c0,2.17-1.75,3.851-3.92,3.851
		c-2.17,0-3.85-1.681-3.85-3.851V113.76h-18.132v16.802c0,2.17-1.75,3.851-3.92,3.851c-2.17,0-3.851-1.681-3.851-3.851V89.257
		c0-2.17,1.68-3.851,3.851-3.851c2.17,0,3.92,1.681,3.92,3.851v16.802h18.132V89.257c0-2.17,1.68-3.851,3.85-3.851
		c2.17,0,3.92,1.681,3.92,3.851V130.562z M162.929,130.632c0,2.1-1.61,3.78-3.781,3.78c-2.1,0-3.78-1.681-3.78-3.78v-27.303
		c0-2.24,1.68-3.85,3.78-3.85c2.17,0,3.781,1.61,3.781,3.85V130.632z M162.929,90.658c0,2.1-1.61,3.85-3.781,3.85
		c-2.1,0-3.78-1.75-3.78-3.85v-1.47c0-2.1,1.68-3.781,3.78-3.781c2.17,0,3.781,1.681,3.781,3.781V90.658z M206.261,117.05v0.07
		v13.021c0,9.171-7.491,16.802-16.802,16.802c-2.59,0-5.18-0.63-7.351-1.75c-1.82-0.841-2.66-3.15-1.68-5.04
		c0.91-1.891,3.081-2.591,5.041-1.751c1.19,0.63,2.521,0.98,3.99,0.98c4.551,0,8.261-3.221,9.171-7.491
		c-2.521,1.75-5.741,2.801-9.171,2.801c-4.62,0-8.891-2.03-11.901-5.321c-3.01-3.08-4.901-7.42-4.901-12.321
		c0-4.831,1.891-9.171,4.901-12.461c3.01-3.15,7.281-5.18,11.901-5.18c3.641,0,6.861,1.12,9.381,2.94c0.35-1.68,1.89-2.94,3.71-2.94
		c2.1,0,3.71,1.68,3.71,3.71V117.05z M251.69,130.562c0,2.17-1.681,3.851-3.851,3.851s-3.85-1.681-3.85-3.851V114.74
		c0-4.13-3.361-7.491-7.561-7.561c-4.131,0.07-7.421,3.431-7.491,7.561v15.821c0,2.17-1.75,3.851-3.92,3.851
		c-1.75,0-3.221-1.261-3.71-2.87c-0.07-0.28-0.14-0.63-0.14-0.98V89.257c0-2.17,1.75-3.851,3.851-3.851
		c2.17,0,3.92,1.681,3.92,3.851v12.181c2.24-1.19,4.761-2.03,7.491-2.03c8.471,0,15.261,6.931,15.261,15.332V130.562z"/>
	<path display="inline" d="M189.459,106.899c-2.45,0-4.76,1.05-6.44,3.01c-1.68,1.68-2.8,4.34-2.8,7.141
		c0,2.94,1.12,5.601,2.8,7.211c1.68,1.89,3.99,2.87,6.44,2.87c2.661,0,4.831-0.98,6.651-2.87c1.54-1.61,2.66-4.271,2.66-7.211
		c0-2.8-1.12-5.46-2.66-7.141C194.29,107.949,192.12,106.899,189.459,106.899z"/>
</g>
<g>
	
		<line fill="#F6F6F6" stroke="#000000" stroke-width="5" stroke-miterlimit="10" x1="130.988" y1="38.868" x2="130.988" y2="73.175"/>
	<circle cx="130.989" cy="38.868" r="6.913"/>
</g>
<g>
	<line fill="#F6F6F6" stroke="#000000" stroke-width="5" stroke-miterlimit="10" x1="198.11" y1="38.868" x2="198.11" y2="70.627"/>
	<circle fill="none" stroke="#000000" stroke-width="5" stroke-miterlimit="10" cx="198.11" cy="33.777" r="6.913"/>
</g>
<g>
	<path d="M304.304,103.259c0,2.1-1.82,3.851-3.92,3.851h-1.751v19.532c2.171,0,3.851,1.75,3.851,3.92
		c0,2.171-1.68,3.851-3.851,3.851c-4.271,0-7.771-3.5-7.771-7.771v-19.532h-2.031c-2.17,0-3.85-1.75-3.85-3.851
		c0-2.17,1.68-3.85,3.85-3.85h2.031V89.257c0-2.17,1.75-3.851,3.92-3.851s3.851,1.681,3.851,3.851v10.151h1.751
		C302.484,99.409,304.304,101.088,304.304,103.259z"/>
	<path d="M311.302,116.91c0.07-9.521,7.49-17.501,17.082-17.501c9.1,0,16.311,6.791,16.871,16.241c0,0.07,0,0.21,0,0.35
		c0,0.14,0,0.49-0.07,0.63c-0.209,1.68-1.68,2.8-3.641,2.8h-22.262c0.35,1.61,1.119,3.43,2.381,4.621
		c1.469,1.68,4.27,2.94,6.721,3.15c2.52,0.21,5.529-0.42,7.279-1.75c1.471-1.54,4.342-1.33,5.252-0.21c0.91,0.98,1.609,3.08,0,4.55
		c-3.432,3.15-7.562,4.621-12.531,4.621C318.792,134.342,311.373,126.431,311.302,116.91z M318.933,113.48h19.811
		c-0.699-2.8-4.27-6.931-10.359-7.421C322.433,106.339,319.492,110.61,318.933,113.48z"/>
	<path d="M353.931,116.98c0-9.731,8.121-17.502,17.783-17.572c4.199,0,8.119,1.54,11.131,3.85c1.609,1.26,1.889,3.641,0.77,5.181
		c-1.4,1.68-3.641,1.96-5.25,0.7c-1.82-1.331-4.061-2.24-6.65-2.24c-5.672,0-10.361,4.69-10.361,10.081
		c0,5.39,4.689,10.011,10.361,10.011c2.52,0,4.83-0.91,6.65-2.24c1.539-1.19,3.85-0.91,5.25,0.77c1.119,1.541,0.84,3.781-0.77,5.18
		c-3.012,2.171-6.932,3.711-11.131,3.711C362.052,134.412,353.931,126.571,353.931,116.98z"/>
	<path d="M404.123,130.562c0,2.171-1.75,3.851-3.92,3.851c-1.75,0-3.221-1.26-3.711-2.87c-0.07-0.28-0.141-0.63-0.141-0.98V89.257
		c0-2.17,1.75-3.851,3.852-3.851c2.17,0,3.92,1.681,3.92,3.851v12.181c2.24-1.19,4.76-2.03,7.49-2.03
		c8.471,0,15.262,6.931,15.262,15.332v15.821c0,2.171-1.68,3.851-3.85,3.851s-3.852-1.68-3.852-3.851V114.74
		c0-4.13-3.359-7.491-7.561-7.561c-4.131,0.07-7.42,3.431-7.49,7.561V130.562z"/>
</g>
<g>
	<line fill="#F6F6F6" stroke="#000000" stroke-width="5" stroke-miterlimit="10" x1="150.882" y1="56.93" x2="130.988" y2="56.93"/>
	<circle cx="150.883" cy="56.93" r="6.913"/>
</g>
<g>
	<line fill="#F6F6F6" stroke="#000000" stroke-width="5" stroke-miterlimit="10" x1="70.459" y1="90.699" x2="87.612" y2="90.699"/>
	<circle cx="70.458" cy="90.699" r="6.913"/>
</g>
<line fill="#F6F6F6" stroke="#000000" stroke-width="5" stroke-miterlimit="10" x1="70.459" y1="61.3" x2="70.459" y2="88.959"/>
<circle fill="none" stroke="#000000" stroke-width="5" stroke-miterlimit="10" cx="70.458" cy="54.387" r="6.913"/>
<line fill="#F6F6F6" stroke="#000000" stroke-width="5" stroke-miterlimit="10" x1="70.458" y1="92.8" x2="70.458" y2="120.459"/>
<g>
	
		<line fill="#F6F6F6" stroke="#000000" stroke-width="5" stroke-miterlimit="10" x1="57.608" y1="120.459" x2="86.791" y2="120.459"/>
	<circle fill="none" stroke="#000000" stroke-width="5" stroke-miterlimit="10" cx="50.695" cy="120.459" r="6.913"/>
</g>
<g>
	
		<line fill="#F6F6F6" stroke="#000000" stroke-width="5" stroke-miterlimit="10" x1="240.804" y1="185.595" x2="240.804" y2="151.288"/>
	<circle cx="240.803" cy="185.596" r="6.913"/>
</g>
<g>
	
		<line fill="#F6F6F6" stroke="#000000" stroke-width="5" stroke-miterlimit="10" x1="260.697" y1="169.198" x2="240.803" y2="169.198"/>
	<circle cx="260.699" cy="169.199" r="6.913"/>
</g>
<g>
	
		<line fill="#F6F6F6" stroke="#000000" stroke-width="5" stroke-miterlimit="10" x1="130.141" y1="192.888" x2="130.141" y2="152.423"/>
	<circle cx="130.141" cy="192.889" r="6.913"/>
</g>
<line fill="#F6F6F6" stroke="#000000" stroke-width="5" stroke-miterlimit="10" x1="128.817" y1="174.046" x2="108.071" y2="174.046"/>
<line fill="#F6F6F6" stroke="#000000" stroke-width="5" stroke-miterlimit="10" x1="101.158" y1="153.379" x2="101.158" y2="167.133"/>
<circle fill="none" stroke="#000000" stroke-width="5" stroke-miterlimit="10" cx="101.158" cy="174.046" r="6.913"/>
<g>
	
		<line fill="#F6F6F6" stroke="#000000" stroke-width="5" stroke-miterlimit="10" x1="165.958" y1="175.237" x2="165.958" y2="152.423"/>
	<circle fill="none" stroke="#000000" stroke-width="5" stroke-miterlimit="10" cx="165.957" cy="182.14" r="6.913"/>
</g>
<line fill="#F6F6F6" stroke="#000000" stroke-width="5" stroke-miterlimit="10" x1="198.11" y1="185.562" x2="198.11" y2="151.256"/>
<circle cx="198.111" cy="189.81" r="6.913"/>
<g>
	
		<line fill="#F6F6F6" stroke="#000000" stroke-width="5" stroke-miterlimit="10" x1="218.004" y1="166.499" x2="198.11" y2="166.499"/>
	<circle cx="218.005" cy="166.5" r="6.913"/>
</g>
<g>
	
		<line fill="#F6F6F6" stroke="#000000" stroke-width="5" stroke-miterlimit="10" x1="255.988" y1="38.868" x2="255.988" y2="73.175"/>
	<circle cx="255.989" cy="38.868" r="6.913"/>
</g>
<line fill="#F6F6F6" stroke="#000000" stroke-width="5" stroke-miterlimit="10" x1="238.284" y1="56.021" x2="255.988" y2="56.021"/>
<line fill="#F6F6F6" stroke="#000000" stroke-width="5" stroke-miterlimit="10" x1="198.11" y1="56.021" x2="224.458" y2="56.021"/>
<circle fill="none" stroke="#000000" stroke-width="5" stroke-miterlimit="10" cx="231.371" cy="56.021" r="6.913"/>
<g>
	<rect x="288" y="141.342" fill="none" width="90.192" height="27.132"/>
	<path d="M305.577,163.271c0,1.055-0.815,1.87-1.87,1.87h-12.034c0,0,0,0-0.034,0h-0.034c-0.51,0-1.054-0.204-1.394-0.612
		c-0.714-0.781-0.646-1.938,0.102-2.651l10.063-9.111c0.985-0.884,1.428-2.04,1.428-3.264c0-1.088-0.374-2.107-1.122-2.957
		c-0.884-0.986-2.073-1.429-3.264-1.429c-1.054,0-2.107,0.374-2.958,1.122l-1.054,0.952c-0.782,0.714-1.938,0.646-2.651-0.136
		c-0.68-0.782-0.646-1.938,0.136-2.652l1.054-0.951c1.53-1.429,3.536-2.108,5.474-2.108c2.21,0,4.454,0.918,6.052,2.686
		c1.428,1.53,2.107,3.536,2.107,5.474c0,2.21-0.918,4.454-2.686,6.052l-6.426,5.813h7.241
		C304.761,161.368,305.577,162.218,305.577,163.271z"/>
	<path d="M310.27,153.243c0.034-3.128,0.815-5.95,2.312-8.126c1.428-2.176,3.638-3.773,6.323-3.773c2.618,0,4.861,1.598,6.289,3.773
		c1.462,2.176,2.278,4.998,2.278,8.126c0,3.094-0.816,5.949-2.278,8.125c-1.428,2.142-3.671,3.773-6.289,3.773
		c-2.686,0-4.896-1.632-6.323-3.773C311.085,159.192,310.304,156.337,310.27,153.243z M323.699,153.243
		c0-2.448-0.681-4.59-1.632-6.052c-0.986-1.428-2.108-2.107-3.162-2.074c-1.054-0.033-2.21,0.646-3.229,2.074
		c-0.952,1.462-1.632,3.604-1.632,6.052c0,2.413,0.68,4.589,1.632,6.017c1.02,1.462,2.176,2.108,3.229,2.108
		s2.176-0.646,3.162-2.108C323.018,157.832,323.699,155.656,323.699,153.243z"/>
	<path d="M349.436,163.271c0,1.055-0.815,1.87-1.87,1.87h-12.034c0,0,0,0-0.034,0h-0.034c-0.51,0-1.054-0.204-1.394-0.612
		c-0.714-0.781-0.646-1.938,0.102-2.651l10.063-9.111c0.985-0.884,1.428-2.04,1.428-3.264c0-1.088-0.374-2.107-1.122-2.957
		c-0.884-0.986-2.073-1.429-3.264-1.429c-1.054,0-2.107,0.374-2.958,1.122l-1.054,0.952c-0.782,0.714-1.938,0.646-2.651-0.136
		c-0.68-0.782-0.646-1.938,0.136-2.652l1.054-0.951c1.53-1.429,3.536-2.108,5.474-2.108c2.21,0,4.454,0.918,6.052,2.686
		c1.428,1.53,2.107,3.536,2.107,5.474c0,2.21-0.918,4.454-2.686,6.052l-6.426,5.813h7.241
		C348.621,161.368,349.436,162.218,349.436,163.271z"/>
	<path d="M369.496,163.271c0,1.055-0.815,1.87-1.87,1.87h-12.034c0,0,0,0-0.034,0h-0.034c-0.51,0-1.054-0.204-1.394-0.612
		c-0.714-0.781-0.646-1.938,0.102-2.651l10.063-9.111c0.985-0.884,1.428-2.04,1.428-3.264c0-1.088-0.374-2.107-1.122-2.957
		c-0.884-0.986-2.074-1.429-3.264-1.429c-1.054,0-2.107,0.374-2.958,1.122l-1.054,0.952c-0.781,0.714-1.938,0.646-2.651-0.136
		c-0.68-0.782-0.646-1.938,0.136-2.652l1.054-0.951c1.53-1.429,3.536-2.108,5.474-2.108c2.21,0,4.453,0.918,6.052,2.686
		c1.428,1.53,2.107,3.536,2.107,5.474c0,2.21-0.918,4.454-2.686,6.052l-6.426,5.813h7.241
		C368.68,161.368,369.496,162.218,369.496,163.271z"/>
</g>
<path d="M259.865,68.719H97.002c-6.627,0-12,5.372-12,12v62.131c0,6.628,5.373,12,12,12h162.862c6.627,0,12-5.372,12-12V80.719
	C271.865,74.091,266.492,68.719,259.865,68.719z M133.383,130.561c0,2.17-1.75,3.851-3.92,3.851c-2.17,0-3.85-1.681-3.85-3.851
	v-16.802h-18.132v16.802c0,2.17-1.75,3.851-3.92,3.851c-2.17,0-3.851-1.681-3.851-3.851V89.256c0-2.17,1.68-3.851,3.851-3.851
	c2.17,0,3.92,1.681,3.92,3.851v16.802h18.132V89.256c0-2.17,1.68-3.851,3.85-3.851c2.17,0,3.92,1.681,3.92,3.851V130.561z
	 M156.201,130.631c0,2.1-1.61,3.78-3.781,3.78c-2.1,0-3.78-1.681-3.78-3.78v-27.303c0-2.24,1.68-3.85,3.78-3.85
	c2.17,0,3.781,1.61,3.781,3.85V130.631z M156.201,90.657c0,2.1-1.61,3.85-3.781,3.85c-2.1,0-3.78-1.75-3.78-3.85v-1.47
	c0-2.1,1.68-3.781,3.78-3.781c2.17,0,3.781,1.681,3.781,3.781V90.657z M210.244,125.66c0,0.49-0.14,0.77-0.21,1.19
	c-0.07,0.14-0.07,0.21-0.14,0.35v0.07c-0.21,0.63-0.63,1.19-1.33,1.681c-4.411,3.43-9.941,5.46-15.892,5.46
	c-14.211,0-25.833-11.131-25.833-25.133c0-14.071,11.622-25.272,25.833-25.272c5.951,0,11.621,2.03,15.961,5.46
	c1.82,1.33,2.1,3.92,0.77,5.671c-1.33,1.68-3.92,2.03-5.67,0.63c-3.01-2.31-6.861-3.78-11.061-3.78c-5.041,0-9.451,1.89-12.602,5.11
	c-3.29,3.15-5.25,7.421-5.25,12.181c0,4.621,1.96,8.891,5.25,12.042c3.15,3.22,7.561,5.11,12.602,5.11c3.5,0,6.791-1.05,9.591-2.66
	v-9.591h-10.011c-2.17,0-3.991-1.82-3.991-3.991c0-2.24,1.82-3.92,3.991-3.92h13.791c0.07,0,0.07,0,0.07,0c0.07,0,0.07,0,0.07,0
	c2.24,0,4.061,1.68,4.061,3.92V125.66z M256.512,130.561c0,2.17-1.75,3.851-3.921,3.851c-2.17,0-3.85-1.681-3.85-3.851v-16.802
	H230.61v16.802c0,2.17-1.75,3.851-3.92,3.851c-2.17,0-3.851-1.681-3.851-3.851V89.256c0-2.17,1.68-3.851,3.851-3.851
	c2.17,0,3.92,1.681,3.92,3.851v16.802h18.132V89.256c0-2.17,1.68-3.851,3.85-3.851c2.171,0,3.921,1.681,3.921,3.851V130.561z"/>
<g id="original_font" display="none">
	<path display="inline" fill="#F6F6F6" d="M106.529,130.562V89.257c0-2.17,1.68-3.851,3.851-3.851c2.17,0,3.92,1.681,3.92,3.851
		v16.802h18.132V89.257c0-2.17,1.68-3.851,3.85-3.851c2.17,0,3.92,1.681,3.92,3.851v41.304c0,2.171-1.75,3.851-3.92,3.851
		c-2.17,0-3.85-1.68-3.85-3.851V113.76H114.3v16.802c0,2.171-1.75,3.851-3.92,3.851
		C108.209,134.412,106.529,132.732,106.529,130.562z"/>
	<path display="inline" fill="#F6F6F6" d="M163.02,90.658c0,2.1-1.61,3.85-3.781,3.85c-2.1,0-3.78-1.75-3.78-3.85v-1.47
		c0-2.1,1.68-3.781,3.78-3.781c2.17,0,3.781,1.681,3.781,3.781V90.658z M163.02,103.329v27.303c0,2.101-1.61,3.78-3.781,3.78
		c-2.1,0-3.78-1.68-3.78-3.78v-27.303c0-2.24,1.68-3.85,3.78-3.85C161.409,99.479,163.02,101.088,163.02,103.329z"/>
	<path display="inline" fill="#F6F6F6" d="M206.351,117.12v13.021c0,9.171-7.491,16.802-16.802,16.802c-2.59,0-5.18-0.63-7.351-1.75
		c-1.82-0.84-2.66-3.15-1.68-5.041c0.91-1.89,3.081-2.59,5.041-1.75c1.19,0.631,2.521,0.98,3.99,0.98
		c4.551,0,8.261-3.221,9.171-7.49c-2.521,1.75-5.741,2.799-9.171,2.799c-4.62,0-8.891-2.029-11.901-5.32
		c-3.01-3.08-4.901-7.42-4.901-12.321c0-4.831,1.891-9.171,4.901-12.461c3.01-3.15,7.281-5.18,11.901-5.18
		c3.641,0,6.861,1.12,9.381,2.94c0.35-1.68,1.89-2.94,3.71-2.94c2.1,0,3.71,1.68,3.71,3.71v13.932V117.12z M198.86,117.05
		c0-2.8-1.12-5.46-2.66-7.141c-1.82-1.96-3.99-3.01-6.651-3.01c-2.45,0-4.76,1.05-6.44,3.01c-1.68,1.68-2.8,4.34-2.8,7.141
		c0,2.94,1.12,5.601,2.8,7.211c1.68,1.89,3.99,2.87,6.44,2.87c2.661,0,4.831-0.98,6.651-2.87
		C197.74,122.651,198.86,119.991,198.86,117.05z"/>
	<path display="inline" fill="#F6F6F6" d="M229.028,130.562c0,2.171-1.75,3.851-3.92,3.851c-1.75,0-3.221-1.26-3.71-2.87
		c-0.07-0.28-0.14-0.63-0.14-0.98V89.257c0-2.17,1.75-3.851,3.851-3.851c2.17,0,3.92,1.681,3.92,3.851v12.181
		c2.24-1.19,4.761-2.03,7.491-2.03c8.471,0,15.262,6.931,15.262,15.332v15.821c0,2.171-1.681,3.851-3.851,3.851
		c-2.171,0-3.851-1.68-3.851-3.851V114.74c0-4.13-3.36-7.491-7.561-7.561c-4.131,0.07-7.421,3.431-7.491,7.561V130.562z"/>
</g>
<path display="none" d="M259.865,68.719H97.002c-6.627,0-12,5.372-12,12v62.131c0,6.628,5.373,12,12,12h162.862
	c6.627,0,12-5.372,12-12V80.719C271.865,74.091,266.492,68.719,259.865,68.719z"/>
<g>
</g>
<g>
</g>
<g>
</g>
<g>
</g>
<g>
</g>
<g>
</g>
</svg>
